<?xml version="1.0" encoding="UTF-8" standalone="no"?>
<!-- Created with Inkscape (http://www.inkscape.org/) -->

<svg
   xmlns:dc="http://purl.org/dc/elements/1.1/"
   xmlns:cc="http://creativecommons.org/ns#"
   xmlns:rdf="http://www.w3.org/1999/02/22-rdf-syntax-ns#"
   xmlns:svg="http://www.w3.org/2000/svg"
   xmlns="http://www.w3.org/2000/svg"
   xmlns:sodipodi="http://sodipodi.sourceforge.net/DTD/sodipodi-0.dtd"
   xmlns:inkscape="http://www.inkscape.org/namespaces/inkscape"
   id="svg2"
   version="1.1"
   inkscape:version="0.92.3 (2405546, 2018-03-11)"
   xml:space="preserve"
   width="1696.8456"
   height="1619.2848"
   viewBox="0 0 1696.8458 1619.2847"
   sodipodi:docname="loremize.svg"
   inkscape:export-filename="/home/eric/data/WORK/PROJECT/TOOL/LOREMIZE/LOGO/loremize.png"
   inkscape:export-xdpi="90"
   inkscape:export-ydpi="90"><metadata
     id="metadata8"><rdf:RDF><cc:Work
         rdf:about=""><dc:format>image/svg+xml</dc:format><dc:type
           rdf:resource="http://purl.org/dc/dcmitype/StillImage" /><dc:title></dc:title></cc:Work></rdf:RDF></metadata><defs
     id="defs6" /><sodipodi:namedview
     pagecolor="#ffffff"
     bordercolor="#666666"
     borderopacity="1"
     objecttolerance="10"
     gridtolerance="10"
     guidetolerance="10"
     inkscape:pageopacity="0"
     inkscape:pageshadow="2"
     inkscape:window-width="1920"
     inkscape:window-height="1056"
     id="namedview4"
     showgrid="true"
     inkscape:zoom="0.15733333"
     inkscape:cx="578.52896"
     inkscape:cy="1518.0474"
     inkscape:window-x="0"
     inkscape:window-y="0"
     inkscape:window-maximized="1"
     inkscape:current-layer="layer1"
     fit-margin-top="80"
     fit-margin-left="80"
     fit-margin-right="80"
     fit-margin-bottom="80"
     showguides="false"><inkscape:grid
       type="xygrid"
       id="grid3748"
       spacingx="15.000001"
       spacingy="30"
       originx="192.91118"
       originy="-123.92156" /></sodipodi:namedview><g
     inkscape:groupmode="layer"
     id="layer1"
     inkscape:label="title"
     style="display:inline"
     transform="translate(-356.64768,188.68183)"><text
   transform="scale(0.94703571,1.0559264)"
   style="font-variant:normal;font-weight:normal;font-stretch:normal;font-size:20.25990295px;line-height:0%;font-family:Times;-inkscape-font-specification:Times-Roman;writing-mode:lr-tb;display:inline;fill:#0077bf;fill-opacity:1;fill-rule:nonzero;stroke:none;stroke-width:1.68832541"
   id="text24"
   x="433.69443"
   y="1274.387"><tspan
     x="433.69443"
     sodipodi:role="line"
     id="tspan28"
     y="1274.387"
     style="font-style:normal;font-variant:normal;font-weight:normal;font-stretch:normal;font-size:360.17605591px;line-height:1.25;font-family:'URW Gothic L';-inkscape-font-specification:'URW Gothic L';fill:#0077bf;fill-opacity:1;stroke-width:1.68832541">LOREMIZE</tspan></text>











<g
   id="g4603"
   transform="matrix(2.1549169,0,0,2.1549169,653.4117,-108.68183)"><path
     id="path4521"
     d="M 286,184 H 70 c -33.137,0 -60,26.863 -60,60 v 154 c 0,33.137 26.863,60 60,60 h 64.979 l -0.901,0.078 L 178,502 178.031,458 H 286 c 33.137,0 60,-26.863 60,-60 V 244 c 0,-33.137 -26.863,-60 -60,-60 z"
     style="fill:#c7eaff"
     inkscape:connector-curvature="0" /><path
     id="path4523"
     d="m 178.002,512 c -2.603,0 -5.16,-1.016 -7.073,-2.929 L 129.858,468 H 70 C 31.402,468 0,436.598 0,398 V 244 c 0,-38.598 31.402,-70 70,-70 h 101 c 5.522,0 10,4.477 10,10 0,5.523 -4.478,10 -10,10 H 70 c -27.57,0 -50,22.43 -50,50 v 154 c 0,27.57 22.43,50 50,50 h 64.979 c 4.09,0 7.626,2.461 9.171,6.008 l 23.868,23.867 0.014,-19.882 c 0.004,-5.52 4.479,-9.993 10,-9.993 H 286 c 27.57,0 50,-22.43 50,-50 v -69 c 0,-5.523 4.478,-10 10,-10 5.522,0 10,4.477 10,10 v 69 c 0,38.598 -31.402,70 -70,70 H 188.024 L 188,502.007 c -0.003,4.043 -2.44,7.687 -6.177,9.233 -1.235,0.511 -2.534,0.76 -3.821,0.76 z"
     inkscape:connector-curvature="0" /><path
     id="path4525"
     d="M 366.655,10 H 341.346 C 266.597,10 206,70.596 206,145.346 v 0 c 0,74.749 60.596,135.346 135.346,135.346 h 25.309 c 13.854,0 27.22,-2.086 39.805,-5.953 L 448,316.255 v -62.733 c 32.794,-24.699 54,-63.96 54,-108.177 v 0 C 502,70.596 441.404,10 366.655,10 Z"
     style="fill:#ffbc53"
     inkscape:connector-curvature="0" /><path
     id="path4527"
     d="m 448.002,326.255 c -2.602,0 -5.158,-1.016 -7.071,-2.927 l -37.387,-37.366 c -12,3.14 -24.381,4.729 -36.89,4.729 H 341.345 C 261.202,290.691 196,225.49 196,145.346 196,65.202 261.202,0 341.346,0 h 25.309 C 446.798,0 512,65.202 512,145.346 c 0,23.216 -5.313,45.405 -15.794,65.951 -9.228,18.09 -22.377,34.283 -38.206,47.102 v 57.856 c 0,4.044 -2.436,7.69 -6.172,9.238 -1.237,0.513 -2.537,0.762 -3.826,0.762 z m -41.543,-61.517 c 2.612,0 5.166,1.025 7.07,2.927 L 438,292.123 v -38.6 c 0,-3.141 1.476,-6.099 3.983,-7.988 C 473.77,221.595 492,185.077 492,145.346 492,76.23 435.771,20 366.655,20 H 341.346 C 272.23,20 216,76.23 216,145.346 c 0,69.116 56.229,125.346 125.346,125.346 h 25.309 c 12.561,0 24.965,-1.854 36.868,-5.512 0.966,-0.297 1.956,-0.442 2.936,-0.442 z"
     inkscape:connector-curvature="0" /><path
     id="path4529"
     d="m 356.8,186.774 c -5.522,0 -10,-4.477 -10,-10 v -24.025 c 0,-8.957 6.13,-16.585 14.908,-18.549 10.834,-2.424 18.141,-12.266 17.373,-23.403 -0.76,-11.027 -9.649,-19.916 -20.677,-20.676 -6.29,-0.434 -12.268,1.679 -16.842,5.948 -4.578,4.273 -7.1,10.074 -7.1,16.333 0,5.523 -4.478,10 -10,10 -5.522,0 -10,-4.477 -10,-10 0,-11.691 4.903,-22.973 13.453,-30.954 8.669,-8.093 19.995,-12.096 31.863,-11.281 20.936,1.443 37.812,18.319 39.255,39.254 1.435,20.821 -12.084,39.259 -32.234,44.127 v 23.226 c 0.001,5.523 -4.476,10 -9.999,10 z"
     inkscape:connector-curvature="0" /><path
     id="path4531"
     d="m 356.8,226.33 c -2.63,0 -5.21,-1.06 -7.07,-2.92 -1.859,-1.86 -2.93,-4.44 -2.93,-7.08 0,-2.63 1.07,-5.21 2.93,-7.07 1.86,-1.86 4.44,-2.93 7.07,-2.93 2.63,0 5.21,1.07 7.07,2.93 1.859,1.86 2.93,4.44 2.93,7.07 0,2.64 -1.07,5.21 -2.93,7.08 -1.86,1.86 -4.44,2.92 -7.07,2.92 z"
     inkscape:connector-curvature="0" /><path
     id="path4533"
     d="M 275,330 H 64 c -5.522,0 -10,-4.477 -10,-10 0,-5.523 4.478,-10 10,-10 h 211 c 5.522,0 10,4.477 10,10 0,5.523 -4.477,10 -10,10 z"
     inkscape:connector-curvature="0" /><path
     id="path4535"
     d="m 275,386 c -2.63,0 -5.21,-1.07 -7.07,-2.93 -1.86,-1.86 -2.93,-4.44 -2.93,-7.07 0,-2.63 1.069,-5.21 2.93,-7.07 1.86,-1.86 4.44,-2.93 7.07,-2.93 2.63,0 5.21,1.07 7.069,2.93 1.86,1.86 2.931,4.44 2.931,7.07 0,2.64 -1.07,5.21 -2.931,7.07 C 280.21,384.93 277.63,386 275,386 Z"
     inkscape:connector-curvature="0" /><path
     id="path4537"
     d="M 235.667,386 H 64 c -5.522,0 -10,-4.477 -10,-10 0,-5.523 4.478,-10 10,-10 h 171.667 c 5.522,0 10,4.477 10,10 0,5.523 -4.477,10 -10,10 z"
     inkscape:connector-curvature="0" /><path
     id="path4539"
     d="M 210,274 H 64 c -5.522,0 -10,-4.477 -10,-10 0,-5.523 4.478,-10 10,-10 h 146 c 5.522,0 10,4.477 10,10 0,5.523 -4.477,10 -10,10 z"
     inkscape:connector-curvature="0" /><g
     id="g4541">
</g><g
     id="g4543">
</g><g
     id="g4545">
</g><g
     id="g4547">
</g><g
     id="g4549">
</g><g
     id="g4551">
</g><g
     id="g4553">
</g><g
     id="g4555">
</g><g
     id="g4557">
</g><g
     id="g4559">
</g><g
     id="g4561">
</g><g
     id="g4563">
</g><g
     id="g4565">
</g><g
     id="g4567">
</g><g
     id="g4569">
</g></g></g></svg>